<svg xmlns="http://www.w3.org/2000/svg" width="32" height="35" viewBox="0 0 32 35">
  <g fill="none">
    <path fill="#FFDD67" d="M15.2392982,24.3731967 L19.5379649,25.422623 L23.8068772,6.66778689 C24.093193,5.41180328 23.3706667,4.12942623 22.1883509,3.8402459 L22.1754386,3.83680328 C20.9925614,3.54877049 19.7950877,4.36122951 19.4997895,5.65565574 L15.2392982,24.3731967 L15.2392982,24.3731967 Z"/>
    <path fill="#FFDD67" d="M10.1614035,23.1327049 L15.2392982,24.3731967 L19.8669474,4.04221311 C20.2167018,2.50795082 19.3639298,0.984016393 17.9615439,0.64204918 C16.5602807,0.298934426 15.1382456,1.26745902 14.7890526,2.80172131 L10.1614035,23.1327049 Z"/>
    <path fill="#FFDD67" d="M9.15312281,23.9721311 L13.8947368,22.7092623 L8.38624561,3.76795082 C8.00168421,2.44311475 6.63017544,1.65418033 5.32322807,2.00303279 L5.31536842,2.00532787 C4.69248932,2.16585328 4.16122784,2.58032794 3.84549483,3.15208024 C3.52976182,3.72383254 3.45716312,4.40287181 3.64463158,5.03081967 L9.15312281,23.9721311 Z"/>
    <path fill="#FFDD67" d="M1.61122807,6.04983607 C0.394666667,6.37344262 -0.259929825,7.62081967 0.0976842105,8.85040984 L4.83031579,25.1236885 L9.15312281,23.9721311 L4.42049123,7.69827869 C4.0634386,6.46983607 2.82947368,5.72508197 1.61122807,6.04983607 Z"/>
    <path fill="#EBA352" d="M22.1877895,3.84081967 L22.1748772,3.83737705 C22.0482052,3.80900603 21.9193315,3.79210995 21.7897544,3.78688525 C22.7480702,4.22754098 23.2976842,5.36245902 23.0416842,6.48188525 L18.7733333,25.2344262 L19.5374035,25.422623 L23.8063158,6.66778689 C24.0926316,5.41237705 23.3701053,4.13 22.1877895,3.84081967 L22.1877895,3.84081967 Z M17.9615439,0.642622951 C17.8326288,0.613872724 17.7015184,0.596594968 17.5696842,0.590983607 C18.7430175,1.09188525 19.418386,2.46491803 19.1023158,3.85516393 L16.4732632,15.4045902 L16.957193,16.8212295 L19.866386,4.04278689 C20.2167018,2.50852459 19.3633684,0.984590164 17.9615439,0.642622951 Z M5.32266667,2.00303279 L5.31480702,2.00532787 C5.17962004,2.04274324 5.04792785,2.09227968 4.92126316,2.15336066 C6.09178947,2.05352459 7.22301754,2.80344262 7.56659649,3.98540984 L10.7929825,15.0821311 L11.9910175,16.1642623 L8.38624561,3.76795082 C8.00168421,2.44368852 6.63017544,1.6547541 5.32266667,2.00303279 Z M1.61122807,6.04983607 C1.47462965,6.08661236 1.34188015,6.13696157 1.21487719,6.20016393 C2.28378947,6.12614754 3.28589474,6.83016393 3.60140351,7.9157377 L5.86947368,15.7167213 L7.02989474,16.6720492 L4.42049123,7.69827869 C4.0634386,6.46983607 2.82947368,5.72508197 1.61122807,6.04983607 L1.61122807,6.04983607 Z"/>
    <path fill="#FFDD67" d="M31.2617544,16.1981148 C30.3988772,14.4366393 27.6148772,14.5238525 24.7758596,17.7547541 C22.7946667,20.0131148 21.9340351,20.7768033 19.9455439,20.7745082 L20.3761404,18.1959836 L3.01361404,18.8781967 C3.01361404,18.8781967 1.97614035,26.2396721 3.68168421,30.2491803 C6.22315789,36.2221311 19.2741053,37.7965574 23.3914386,27.6310656 C24.2105263,25.6096721 25.8694737,24.1069672 27.3566316,22.2158197 C29.1475088,19.9356557 32.2065965,18.1305738 31.2617544,16.1981148 L31.2617544,16.1981148 Z"/>
    <path fill="#EBA352" d="M31.2617544,16.1981148 C31.1064099,15.8756338 30.8693145,15.6016141 30.5751579,15.4045902 C30.621193,15.4763115 30.6672281,15.5468852 30.7065263,15.6266393 C31.6519298,17.5585246 28.5922807,19.3653279 26.8019649,21.6431967 C25.3153684,23.5360656 23.6558596,25.0393443 22.8378947,27.0595902 C19.2679298,35.8721311 8.98750877,35.8589344 4.65852632,31.807541 C8.59284211,36.4131967 19.6603509,36.842377 23.3914386,27.6310656 C24.2105263,25.6096721 25.8694737,24.1069672 27.3566316,22.2158197 C29.1475088,19.9356557 32.2065965,18.1305738 31.2617544,16.1981148 L31.2617544,16.1981148 Z"/>
    <path fill="#EBA352" d="M20.6102456,20.7108197 C16.9442807,19.332623 10.5324912,21.9008197 11.4307368,28.5789344 C11.4307368,22.3259836 17.0885614,20.7727869 20.1375439,20.7727869 C20.5030175,20.7722131 20.6102456,20.7108197 20.6102456,20.7108197 Z"/>
  </g>
</svg>
