<svg
  xmlns="http://www.w3.org/2000/svg"
  width="109px"
  height="114px"
  viewBox="0 0 109 114">
  <defs>
    <linearGradient x1="164.261102%" y1="228.815483%" x2="50%" y2="50%" id="linearGradient-1">
      <stop stop-color="#000000" offset="0%"></stop>
      <stop stop-color="#FFFFFF" offset="100%"></stop>
    </linearGradient>
  </defs>
  <g id="Page-1" stroke="none" stroke-width="1" fill="none" fill-rule="evenodd">
    <path d="M8.94776119,114 L8.94776119,24.3571429 L8.94776119,24.3571429 C8.94776119,22.1480039 7.15690019,20.3571429 4.94776119,20.3571429 L5.99520433e-15,20.3571429 L7.10542736e-15,0 L48.7294118,0 C82.8530735,0 109,23.1257143 109,57.6404494 C109,92.0142857 82.6896552,114 48.7294118,114 L8.94776119,114 Z M34.9776119,36.6428571 L34.9776119,77.3571429 L52.0597015,77.3571429 C64.5977869,77.3571429 74.0223881,69.505102 74.0223881,57 C74.0223881,44.9020408 64.6563248,36.6428571 52.0597015,36.6428571 L34.9776119,36.6428571 Z" id="D" fill="url(#linearGradient-1)"></path>
  </g>
</svg>